<mxfile host="app.diagrams.net" modified="2024-03-01T03:40:59.429Z" agent="Mozilla/5.0 (Windows NT 10.0; Win64; x64) AppleWebKit/537.36 (KHTML, like Gecko) Chrome/122.0.0.0 Safari/537.36 Edg/122.0.0.0" etag="TmdqIHBxJg8d6rxejmD3" version="24.0.0" type="github">
  <diagram id="C5RBs43oDa-KdzZeNtuy" name="Page-1">
    <mxGraphModel dx="1109" dy="596" grid="1" gridSize="10" guides="1" tooltips="1" connect="1" arrows="1" fold="1" page="1" pageScale="1" pageWidth="827" pageHeight="1169" background="none" math="0" shadow="0">
      <root>
        <mxCell id="WIyWlLk6GJQsqaUBKTNV-0" />
        <mxCell id="WIyWlLk6GJQsqaUBKTNV-1" parent="WIyWlLk6GJQsqaUBKTNV-0" />
        <mxCell id="WuzCzDK2jLKwMSGD9dU1-18" style="edgeStyle=orthogonalEdgeStyle;rounded=0;orthogonalLoop=1;jettySize=auto;html=1;exitX=0.5;exitY=0;exitDx=0;exitDy=0;entryX=0;entryY=0.5;entryDx=0;entryDy=0;" edge="1" parent="WIyWlLk6GJQsqaUBKTNV-1" source="WuzCzDK2jLKwMSGD9dU1-0" target="WuzCzDK2jLKwMSGD9dU1-2">
          <mxGeometry relative="1" as="geometry" />
        </mxCell>
        <mxCell id="WuzCzDK2jLKwMSGD9dU1-0" value="Sí" style="rounded=0;whiteSpace=wrap;html=1;" vertex="1" parent="WIyWlLk6GJQsqaUBKTNV-1">
          <mxGeometry x="270" y="405" width="40" height="30" as="geometry" />
        </mxCell>
        <mxCell id="WuzCzDK2jLKwMSGD9dU1-23" style="edgeStyle=orthogonalEdgeStyle;rounded=0;orthogonalLoop=1;jettySize=auto;html=1;exitX=0.5;exitY=1;exitDx=0;exitDy=0;entryX=0.5;entryY=0;entryDx=0;entryDy=0;" edge="1" parent="WIyWlLk6GJQsqaUBKTNV-1" source="WuzCzDK2jLKwMSGD9dU1-1" target="WuzCzDK2jLKwMSGD9dU1-3">
          <mxGeometry relative="1" as="geometry" />
        </mxCell>
        <mxCell id="WuzCzDK2jLKwMSGD9dU1-1" value="Calcular Precio" style="rounded=0;whiteSpace=wrap;html=1;" vertex="1" parent="WIyWlLk6GJQsqaUBKTNV-1">
          <mxGeometry x="335" y="530" width="150" height="40" as="geometry" />
        </mxCell>
        <mxCell id="WuzCzDK2jLKwMSGD9dU1-16" style="edgeStyle=orthogonalEdgeStyle;rounded=0;orthogonalLoop=1;jettySize=auto;html=1;exitX=0.5;exitY=1;exitDx=0;exitDy=0;entryX=0.5;entryY=0;entryDx=0;entryDy=0;" edge="1" parent="WIyWlLk6GJQsqaUBKTNV-1" source="WuzCzDK2jLKwMSGD9dU1-2" target="WuzCzDK2jLKwMSGD9dU1-15">
          <mxGeometry relative="1" as="geometry" />
        </mxCell>
        <mxCell id="WuzCzDK2jLKwMSGD9dU1-2" value="Añade Producto" style="rounded=0;whiteSpace=wrap;html=1;" vertex="1" parent="WIyWlLk6GJQsqaUBKTNV-1">
          <mxGeometry x="335" y="310" width="150" height="40" as="geometry" />
        </mxCell>
        <mxCell id="WuzCzDK2jLKwMSGD9dU1-24" style="edgeStyle=orthogonalEdgeStyle;rounded=0;orthogonalLoop=1;jettySize=auto;html=1;exitX=0.5;exitY=1;exitDx=0;exitDy=0;entryX=0.5;entryY=0;entryDx=0;entryDy=0;" edge="1" parent="WIyWlLk6GJQsqaUBKTNV-1" source="WuzCzDK2jLKwMSGD9dU1-3" target="WuzCzDK2jLKwMSGD9dU1-21">
          <mxGeometry relative="1" as="geometry" />
        </mxCell>
        <mxCell id="WuzCzDK2jLKwMSGD9dU1-3" value="Calcular Impuestos" style="rounded=0;whiteSpace=wrap;html=1;" vertex="1" parent="WIyWlLk6GJQsqaUBKTNV-1">
          <mxGeometry x="335" y="600" width="150" height="40" as="geometry" />
        </mxCell>
        <mxCell id="WuzCzDK2jLKwMSGD9dU1-14" style="edgeStyle=orthogonalEdgeStyle;rounded=0;orthogonalLoop=1;jettySize=auto;html=1;exitX=0.5;exitY=1;exitDx=0;exitDy=0;entryX=0.5;entryY=0;entryDx=0;entryDy=0;" edge="1" parent="WIyWlLk6GJQsqaUBKTNV-1" source="WuzCzDK2jLKwMSGD9dU1-4" target="WuzCzDK2jLKwMSGD9dU1-2">
          <mxGeometry relative="1" as="geometry" />
        </mxCell>
        <mxCell id="WuzCzDK2jLKwMSGD9dU1-4" value="Seleccionar Vendedor" style="shape=parallelogram;perimeter=parallelogramPerimeter;whiteSpace=wrap;html=1;fixedSize=1;" vertex="1" parent="WIyWlLk6GJQsqaUBKTNV-1">
          <mxGeometry x="330" y="240" width="160" height="40" as="geometry" />
        </mxCell>
        <mxCell id="WuzCzDK2jLKwMSGD9dU1-13" style="edgeStyle=orthogonalEdgeStyle;rounded=0;orthogonalLoop=1;jettySize=auto;html=1;exitX=0.5;exitY=1;exitDx=0;exitDy=0;entryX=0.5;entryY=0;entryDx=0;entryDy=0;" edge="1" parent="WIyWlLk6GJQsqaUBKTNV-1" source="WuzCzDK2jLKwMSGD9dU1-6" target="WuzCzDK2jLKwMSGD9dU1-4">
          <mxGeometry relative="1" as="geometry" />
        </mxCell>
        <mxCell id="WuzCzDK2jLKwMSGD9dU1-6" value="Seleccionar Cliente" style="shape=parallelogram;perimeter=parallelogramPerimeter;whiteSpace=wrap;html=1;fixedSize=1;" vertex="1" parent="WIyWlLk6GJQsqaUBKTNV-1">
          <mxGeometry x="330" y="170" width="160" height="40" as="geometry" />
        </mxCell>
        <mxCell id="WuzCzDK2jLKwMSGD9dU1-7" value="&lt;b&gt;&lt;font style=&quot;font-size: 16px;&quot;&gt;FACTURAS&lt;/font&gt;&lt;/b&gt;" style="text;html=1;align=center;verticalAlign=middle;resizable=0;points=[];autosize=1;strokeColor=none;fillColor=none;" vertex="1" parent="WIyWlLk6GJQsqaUBKTNV-1">
          <mxGeometry x="140" y="38" width="110" height="30" as="geometry" />
        </mxCell>
        <mxCell id="WuzCzDK2jLKwMSGD9dU1-12" style="edgeStyle=orthogonalEdgeStyle;rounded=0;orthogonalLoop=1;jettySize=auto;html=1;exitX=0.5;exitY=1;exitDx=0;exitDy=0;entryX=0.5;entryY=0;entryDx=0;entryDy=0;" edge="1" parent="WIyWlLk6GJQsqaUBKTNV-1" source="WuzCzDK2jLKwMSGD9dU1-8" target="WuzCzDK2jLKwMSGD9dU1-6">
          <mxGeometry relative="1" as="geometry" />
        </mxCell>
        <mxCell id="WuzCzDK2jLKwMSGD9dU1-8" value="&lt;b&gt;INICIO&lt;/b&gt;" style="ellipse;whiteSpace=wrap;html=1;" vertex="1" parent="WIyWlLk6GJQsqaUBKTNV-1">
          <mxGeometry x="370" y="90" width="80" height="40" as="geometry" />
        </mxCell>
        <mxCell id="WuzCzDK2jLKwMSGD9dU1-9" value="&lt;b&gt;FIN&lt;/b&gt;" style="ellipse;whiteSpace=wrap;html=1;" vertex="1" parent="WIyWlLk6GJQsqaUBKTNV-1">
          <mxGeometry x="370" y="750" width="80" height="40" as="geometry" />
        </mxCell>
        <mxCell id="WuzCzDK2jLKwMSGD9dU1-17" style="edgeStyle=orthogonalEdgeStyle;rounded=0;orthogonalLoop=1;jettySize=auto;html=1;exitX=0;exitY=0.5;exitDx=0;exitDy=0;" edge="1" parent="WIyWlLk6GJQsqaUBKTNV-1" source="WuzCzDK2jLKwMSGD9dU1-15" target="WuzCzDK2jLKwMSGD9dU1-0">
          <mxGeometry relative="1" as="geometry" />
        </mxCell>
        <mxCell id="WuzCzDK2jLKwMSGD9dU1-20" style="edgeStyle=orthogonalEdgeStyle;rounded=0;orthogonalLoop=1;jettySize=auto;html=1;exitX=0.5;exitY=1;exitDx=0;exitDy=0;entryX=0.5;entryY=0;entryDx=0;entryDy=0;" edge="1" parent="WIyWlLk6GJQsqaUBKTNV-1" source="WuzCzDK2jLKwMSGD9dU1-15" target="WuzCzDK2jLKwMSGD9dU1-19">
          <mxGeometry relative="1" as="geometry" />
        </mxCell>
        <mxCell id="WuzCzDK2jLKwMSGD9dU1-15" value="&lt;font style=&quot;font-size: 10px;&quot;&gt;¿Más Productos por añadir?&lt;/font&gt;" style="rhombus;whiteSpace=wrap;html=1;" vertex="1" parent="WIyWlLk6GJQsqaUBKTNV-1">
          <mxGeometry x="355" y="380" width="110" height="80" as="geometry" />
        </mxCell>
        <mxCell id="WuzCzDK2jLKwMSGD9dU1-22" style="edgeStyle=orthogonalEdgeStyle;rounded=0;orthogonalLoop=1;jettySize=auto;html=1;exitX=0.5;exitY=1;exitDx=0;exitDy=0;entryX=0.5;entryY=0;entryDx=0;entryDy=0;" edge="1" parent="WIyWlLk6GJQsqaUBKTNV-1" source="WuzCzDK2jLKwMSGD9dU1-19" target="WuzCzDK2jLKwMSGD9dU1-1">
          <mxGeometry relative="1" as="geometry" />
        </mxCell>
        <mxCell id="WuzCzDK2jLKwMSGD9dU1-19" value="No" style="rounded=0;whiteSpace=wrap;html=1;" vertex="1" parent="WIyWlLk6GJQsqaUBKTNV-1">
          <mxGeometry x="390" y="480" width="40" height="30" as="geometry" />
        </mxCell>
        <mxCell id="WuzCzDK2jLKwMSGD9dU1-25" style="edgeStyle=orthogonalEdgeStyle;rounded=0;orthogonalLoop=1;jettySize=auto;html=1;exitX=0.5;exitY=1;exitDx=0;exitDy=0;entryX=0.5;entryY=0;entryDx=0;entryDy=0;" edge="1" parent="WIyWlLk6GJQsqaUBKTNV-1" source="WuzCzDK2jLKwMSGD9dU1-21" target="WuzCzDK2jLKwMSGD9dU1-9">
          <mxGeometry relative="1" as="geometry" />
        </mxCell>
        <mxCell id="WuzCzDK2jLKwMSGD9dU1-21" value="Genera Numero de Factura" style="rounded=0;whiteSpace=wrap;html=1;" vertex="1" parent="WIyWlLk6GJQsqaUBKTNV-1">
          <mxGeometry x="335" y="670" width="150" height="40" as="geometry" />
        </mxCell>
      </root>
    </mxGraphModel>
  </diagram>
</mxfile>
